<svg xmlns="http://www.w3.org/2000/svg" viewBox="0 0 119 119"><defs><style>.cls-1{fill:#0b0e14;}.cls-2{fill:#00d1ff;}</style></defs><g id="Capa_2" data-name="Capa 2"><g id="Capa_1-2" data-name="Capa 1"><rect class="cls-1" width="119" height="119"/><path class="cls-2" d="M61.18,8.69a41,41,0,0,1,13,1.55c1.27.34,3.37.37,2.82,2.49s-2.23,1.26-3.65.93A48.64,48.64,0,0,0,41.78,16.4c-7.83,3.45-13.81,9-19,15.51-.95,1.17-1.61,3.33-3.61,1.82-1.81-1.37,0-2.6.77-3.63Q35.22,9.17,61.18,8.69Z"/><path class="cls-2" d="M61.87,110.36c-17.32-.53-31.32-7.34-41.75-21.12-.73-1-1.94-2-1.57-3.37a2.4,2.4,0,0,1,1.64-1.29c1.46-.24,1.85,1.23,2.47,2.08,7.14,9.8,16.48,16.24,28.39,18.87a45.16,45.16,0,0,0,22.42-.41c1.29-.36,2.91-1.3,3.54.94s-1.39,1.91-2.4,2.26A44.73,44.73,0,0,1,61.87,110.36Z"/><path class="cls-2" d="M100.75,58.31A39.74,39.74,0,1,1,61,18.58,39.74,39.74,0,0,1,100.75,58.31ZM61,42.21a16.1,16.1,0,1,0,16.1,16.1A16.09,16.09,0,0,0,61,42.21Zm0,8.41a7.69,7.69,0,1,0,7.7,7.69A7.69,7.69,0,0,0,61,50.62ZM59.26,82.47a3.93,3.93,0,1,0,3.93,3.93A3.93,3.93,0,0,0,59.26,82.47Z"/></g></g></svg>