<svg xmlns="http://www.w3.org/2000/svg" viewBox="0 0 140.92 140.92"><defs><style>.cls-1{fill:#0b0e14;}.cls-2{fill:#00d1ff;}</style></defs><g id="Capa_2" data-name="Capa 2"><g id="Capa_1-2" data-name="Capa 1"><circle class="cls-1" cx="70.46" cy="70.46" r="70.46"/><path class="cls-2" d="M72.09,19.66a40.8,40.8,0,0,1,13,1.55c1.26.33,3.36.37,2.81,2.48s-2.22,1.26-3.64.93A48.64,48.64,0,0,0,52.7,27.36c-7.83,3.45-13.81,9-19.06,15.51C32.7,44,32,46.2,30,44.69c-1.82-1.37,0-2.6.77-3.63Q46.14,20.13,72.09,19.66Z"/><path class="cls-2" d="M72.79,121.32C55.47,120.8,41.47,114,31,100.2c-.73-1-1.95-2-1.57-3.37a2.34,2.34,0,0,1,1.64-1.28c1.46-.25,1.84,1.22,2.47,2.08,7.14,9.79,16.48,16.24,28.38,18.86a45.15,45.15,0,0,0,22.42-.4c1.29-.37,2.92-1.31,3.55.93s-1.4,1.91-2.41,2.26A44.61,44.61,0,0,1,72.79,121.32Z"/><path class="cls-2" d="M111.66,69.27A39.73,39.73,0,1,1,71.93,29.54,39.72,39.72,0,0,1,111.66,69.27ZM71.93,53.17A16.1,16.1,0,1,0,88,69.27,16.1,16.1,0,0,0,71.93,53.17Zm0,8.41a7.69,7.69,0,1,0,7.69,7.69A7.69,7.69,0,0,0,71.93,61.58ZM70.18,93.44a3.93,3.93,0,1,0,3.93,3.92A3.92,3.92,0,0,0,70.18,93.44Z"/></g></g></svg>