<svg xmlns="http://www.w3.org/2000/svg" viewBox="0 0 281.24 51.43"><defs><style>.cls-1{fill:#00d1ff;}</style></defs><g id="Capa_2" data-name="Capa 2"><g id="Capa_1-2" data-name="Capa 1"><path class="cls-1" d="M0,50.79l4.84-16A19.77,19.77,0,0,1,7.63,29a20.84,20.84,0,0,1,4.26-4.51,19.8,19.8,0,0,1,5.21-2.91,16.16,16.16,0,0,1,5.68-1.05H46.05L42.69,31.7H18.86L13.1,50.79ZM11.88,11.17,15.24,0h37L48.87,11.17Z"/><path class="cls-1" d="M68.65,41.76l7.86-26.09h11L76.89,50.84H55.4q-7.57,0-9.81-3.87t-.25-10.49l6.27-20.81h11l-6.36,21.1c-.54,1.8-.63,3.08-.26,3.84s1.4,1.15,3.09,1.15Z"/><path class="cls-1" d="M97.53,6.88h11l-13.25,44h-11Z"/><path class="cls-1" d="M116.59,6.88h11l-13.25,44h-11Z"/><path class="cls-1" d="M155.21,3.32l-5.52,36.14a1.83,1.83,0,0,0,.05,1.08.75.75,0,0,0,.8.44,1.3,1.3,0,0,0,1-.41,3,3,0,0,0,.64-1l11.22-24a27.87,27.87,0,0,1,6.93-9.46,15,15,0,0,1,10.1-3.58c4,0,6.53,1.21,7.61,3.61s1.38,5.53.89,9.37l-3.24,24a1.92,1.92,0,0,0,.12,1.07.7.7,0,0,0,.69.38,1.6,1.6,0,0,0,1.23-.44,3.8,3.8,0,0,0,.69-1.14L204.5,3.32H217L199.42,40A22.91,22.91,0,0,1,193,48.51a14.49,14.49,0,0,1-9.14,2.92c-4,0-6.77-1.08-8.33-3.23s-2.07-5.07-1.55-8.74l3.47-24.93a1.49,1.49,0,0,0,0-.89.65.65,0,0,0-.65-.32,1.21,1.21,0,0,0-.85.32,2.5,2.5,0,0,0-.58.89L163.56,39.59a24.14,24.14,0,0,1-6.51,8.67,14.77,14.77,0,0,1-9.59,3.17q-6,0-8-3.45t-1.32-8.77l4.58-35.89Z"/><path class="cls-1" d="M243.93,36.54H219.15l-.07.23c-.68,2.23-.64,3.72.1,4.46s2.28,1.11,4.63,1.11h17.56l-2.56,8.5H221.89a24.71,24.71,0,0,1-8.24-1.14A9.39,9.39,0,0,1,209,46.47a8.69,8.69,0,0,1-1.55-5,20.62,20.62,0,0,1,1-6.45l1.34-4.45a22,22,0,0,1,7.35-11.17q5.25-4.18,14.32-4.19h2.31a20.75,20.75,0,0,1,7.73,1.18,8,8,0,0,1,4.12,3.31,9.17,9.17,0,0,1,1.08,5.13,28,28,0,0,1-1.24,6.62ZM232.68,23.06h-4.5a6.44,6.44,0,0,0-4.24,1.23,8.42,8.42,0,0,0-2.34,4.1l-.23.76h14.39l.23-.76c.57-1.91.61-3.28.11-4.1S234.45,23.06,232.68,23.06Z"/><path class="cls-1" d="M251.12,24.17l2.56-8.5h5.61l2.15-7.15h10.11l-2.15,7.15h11.84l-2.56,8.5H266.84l-4.3,14.24c-.44,1.49-.45,2.52,0,3.08s1.36.85,2.75.85h7.91l-2.56,8.5h-9.18q-7.17,0-9.33-3.08t-.27-9.35l4.29-14.24Z"/></g></g></svg>