<svg xmlns="http://www.w3.org/2000/svg" viewBox="0 0 652.16 149.39"><defs><style>.cls-1{fill:none;}.cls-2{fill:#00d1ff;}.cls-3{fill:#0b0e14;}</style></defs><g id="Capa_2" data-name="Capa 2"><g id="Capa_1-2" data-name="Capa 1"><path class="cls-1" d="M339.55,39.21c-8,1.6-16.5,3.5-18.9,4.2-5.8,1.8-6.6,3.8-1.4,3.8,3.2,0,4.9.8,9.2,4.5,2.9,2.5,6.2,4.7,7.4,5s10.9.6,21.6.7c14.8.2,27.1-.2,27.1-.2H402l-6.4-6.6C380.75,35.71,368.85,33.21,339.55,39.21Z"/><path class="cls-2" d="M488.62,58.68a23,23,0,0,1,5.55-1.83c-3.06.07-17.59.36-44.82.36h-34.8l-15.8-12.5c-18.2-14.6-22.5-16.5-36.8-16.5-8.4,0-37.1,5.4-61.6,11.6-5.3,1.3-9.9,2.4-10.2,2.4s-.6-1.6-.6-3.5c0-3.3-.2-3.5-3.4-3.5h-3.4l.6-11c.4-9.8.3-11-1.2-11-2.2,0-6-6.1-4.4-7.1s-.4-3.4-4-5.2c-3.2-1.5-11.6-1.1-15.9.9a14.55,14.55,0,0,1-4.5,1.4c-2.7,0-2.5,1,1,4.8l3.5,3.7-26.4.5-26.4.5-33,13.9c-18.2,7.6-39.3,16.4-47,19.6-12,4.91-14.25,3.46-15.77,6.85,0,.08.08.2.23.34a51.5,51.5,0,0,1,20.67,76l-.24.34a51.6,51.6,0,0,1-6.39,7.45h315v-3.5c0-3.3.43-3.47-3.5-3.5-4.39,0-4.07.17-3.48-2.5a92.91,92.91,0,0,1,2.48-10.3c2.5-7.8,2.56-9,6.27-9.31,2.12-.15,5.9-.11,8.7-.11h5.64c1.19,0,1.35-.12,1.33-.38s0-.7,0-1.06A51.43,51.43,0,0,1,488.62,58.68ZM384.55,57.21s-12.3.4-27.1.2c-10.7-.1-20.4-.4-21.6-.7s-4.5-2.5-7.4-5c-4.3-3.7-6-4.5-9.2-4.5-5.2,0-4.4-2,1.4-3.8,2.4-.7,10.9-2.6,18.9-4.2,29.3-6,41.2-3.5,56,11.4l6.4,6.6Z"/><path class="cls-2" d="M630.07,118.47h11.68c8.56-.09,10.41.39,10.41-.71,0-1.5-2.3-3.85-74.6-33.45-20.1-8.2-36.21-16.88-36.81-16.88a0,0,0,0,0,0,0,51.26,51.26,0,0,1,18.06,39.1c0,1.58-.08,3.13-.22,4.67h2.32c2.4,0,4.6.2,4.9.5s-1,5.1-2.8,10.7a94.15,94.15,0,0,0-3.4,11.4c0,.37-.61,1.51.9,1.46,2.38-.06,12.46,0,29.8,0,17,0,34.92,0,39.93,0,1.81,0,11.58,0,11.58,0l2-4s-3.84,0-8.24,0h-6.1l.3-6.3Z"/><path class="cls-1" d="M339.55,39.21c-8,1.6-16.5,3.5-18.9,4.2-5.8,1.8-6.6,3.8-1.4,3.8,3.2,0,4.9.8,9.2,4.5,2.9,2.5,6.2,4.7,7.4,5s10.9.6,21.6.7c14.8.2,27.1-.2,27.1-.2H402l-6.4-6.6C380.75,35.71,368.85,33.21,339.55,39.21Z"/><path class="cls-1" d="M130.18,129.42l-.24.34Z"/><path class="cls-2" d="M66.58,53.18a49.62,49.62,0,0,1,4.69-1.85c.7-.24,1.4-.46,2.12-.67a7.92,7.92,0,0,1,4.85-4.95c4.3-1.8,5.4-3,5.4-6.3,0-1.7-.8-2.7-3-3.5-2.9-1.1-3-1.4-3-7.4v-6.3h-4.9c-5.32-.07-4.7.25-5.6-2-.43-1.07-.24-2.33-2.68-2.38-1.13,0-32.51-.13-36.61,0-1.11,0-1.59.55-1.71,1-.4,1-1.3,3.4-2.1,5.2l-1.4,3.3s-19.8-.1-22.42,0c-.2,0-.27.1-.19.33,8,20,19.31,47.2,21.21,50.4l2.53,3.63-11.63.07-.3,12.2-.3,12.3H36.66a51.41,51.41,0,0,1,29.92-53Z"/><path class="cls-2" d="M89.11,59.29a33.66,33.66,0,0,1,10.68,1.28c1,.28,2.76.3,2.31,2s-1.83,1-3,.77a40,40,0,0,0-25.94,2.25C66.72,68.47,61.8,73,57.48,78.39c-.77,1-1.32,2.74-3,1.49s0-2.13.63-3Q67.77,59.68,89.11,59.29Z"/><path class="cls-2" d="M89.69,142.92c-14.25-.43-25.77-6-34.35-17.37-.6-.8-1.6-1.61-1.29-2.77a1.94,1.94,0,0,1,1.35-1.06c1.2-.2,1.52,1,2,1.71A38.32,38.32,0,0,0,80.78,139a37.15,37.15,0,0,0,18.44-.33c1.07-.31,2.4-1.08,2.92.77s-1.15,1.56-2,1.85A36.7,36.7,0,0,1,89.69,142.92Z"/><path class="cls-2" d="M508.85,65.76A33.65,33.65,0,0,1,519.53,67c1,.28,2.77.31,2.31,2s-1.83,1-3,.76a40.1,40.1,0,0,0-26,2.25c-6.44,2.85-11.36,7.4-15.67,12.77-.78,1-1.32,2.73-3,1.49-1.49-1.12,0-2.13.63-3Q487.51,66.15,508.85,65.76Z"/><path class="cls-2" d="M509.43,149.39c-14.25-.43-25.76-6-34.35-17.37-.6-.8-1.6-1.61-1.29-2.78a1.93,1.93,0,0,1,1.35-1.05c1.2-.21,1.52,1,2,1.71a38.29,38.29,0,0,0,23.35,15.51,37.07,37.07,0,0,0,18.45-.33c1.06-.3,2.4-1.07,2.91.77s-1.15,1.57-2,1.86A36.65,36.65,0,0,1,509.43,149.39Z"/><path class="cls-3" d="M146.28,121.89l4.83-16a20.06,20.06,0,0,1,2.8-5.75,20.61,20.61,0,0,1,4.26-4.51,19.64,19.64,0,0,1,5.21-2.91,16.12,16.12,0,0,1,5.68-1h23.27L189,102.8H165.13l-5.75,19.09Zm11.87-39.61,3.37-11.18h37l-3.36,11.18Z"/><path class="cls-3" d="M214.93,112.86l7.86-26.09h11l-10.59,35.17H201.68q-7.58,0-9.81-3.87t-.25-10.49l6.27-20.81h11l-6.35,21.1c-.54,1.8-.63,3.08-.26,3.84s1.39,1.15,3.09,1.15Z"/><path class="cls-3" d="M243.81,78h11l-13.24,44h-11Z"/><path class="cls-3" d="M262.87,78h11l-13.25,44h-11Z"/><path class="cls-3" d="M301.49,74.42,296,110.56a1.83,1.83,0,0,0,0,1.08c.11.3.38.44.8.44a1.28,1.28,0,0,0,1-.41,2.87,2.87,0,0,0,.64-1l11.22-24a27.89,27.89,0,0,1,6.94-9.46,15,15,0,0,1,10.09-3.58c4,0,6.53,1.21,7.62,3.61s1.38,5.53.89,9.37l-3.24,24a1.84,1.84,0,0,0,.11,1.07.72.72,0,0,0,.7.38,1.56,1.56,0,0,0,1.22-.44,3.43,3.43,0,0,0,.69-1.14l16.11-36.08h12.48L345.7,111.13a23.05,23.05,0,0,1-6.46,8.49,14.5,14.5,0,0,1-9.14,2.91q-6,0-8.32-3.23c-1.56-2.15-2.07-5.07-1.55-8.74l3.46-24.93a1.5,1.5,0,0,0,0-.89.67.67,0,0,0-.66-.32,1.2,1.2,0,0,0-.84.32,2.5,2.5,0,0,0-.58.89l-11.73,25.06a24.14,24.14,0,0,1-6.51,8.67,14.8,14.8,0,0,1-9.6,3.17q-6,0-8-3.45t-1.32-8.77L289,74.42Z"/><path class="cls-3" d="M390.21,107.64H365.42l-.07.23q-1,3.34.11,4.46c.73.74,2.28,1.11,4.63,1.11h17.56l-2.56,8.5H368.16a24.65,24.65,0,0,1-8.23-1.14,9.35,9.35,0,0,1-4.63-3.23,8.77,8.77,0,0,1-1.56-5,21.22,21.22,0,0,1,1-6.45l1.35-4.45a22,22,0,0,1,7.35-11.17q5.25-4.18,14.32-4.19h2.31a21,21,0,0,1,7.73,1.18,8,8,0,0,1,4.12,3.31A9.17,9.17,0,0,1,393,95.92a28.05,28.05,0,0,1-1.25,6.62ZM379,94.16h-4.5a6.47,6.47,0,0,0-4.25,1.23,8.42,8.42,0,0,0-2.33,4.1l-.23.76H382l.23-.76c.58-1.91.62-3.28.11-4.1S380.73,94.16,379,94.16Z"/><path class="cls-3" d="M397.4,95.27l2.56-8.5h5.6l2.16-7.15h10.11l-2.16,7.15h11.85L425,95.27H413.11l-4.29,14.24c-.45,1.49-.45,2.52,0,3.08s1.36.85,2.75.85h7.91l-2.56,8.5h-9.19q-7.16,0-9.32-3.08t-.28-9.35l4.29-14.24Z"/><path class="cls-2" d="M121.66,100.11A32.68,32.68,0,1,1,89,67.42,32.68,32.68,0,0,1,121.66,100.11ZM89,86.86a13.25,13.25,0,1,0,13.24,13.25A13.25,13.25,0,0,0,89,86.86Zm0,6.92a6.33,6.33,0,1,0,6.33,6.33A6.33,6.33,0,0,0,89,93.78ZM87.54,120a3.24,3.24,0,1,0,3.23,3.24A3.23,3.23,0,0,0,87.54,120Z"/><path class="cls-2" d="M541.36,107.43a32.69,32.69,0,1,1-32.68-32.68A32.68,32.68,0,0,1,541.36,107.43ZM508.68,94.19a13.24,13.24,0,1,0,13.24,13.24A13.25,13.25,0,0,0,508.68,94.19Zm0,6.91a6.33,6.33,0,1,0,6.32,6.33A6.33,6.33,0,0,0,508.68,101.1Zm-1.45,26.21a3.23,3.23,0,1,0,3.24,3.23A3.23,3.23,0,0,0,507.23,127.31Z"/></g></g></svg>