<svg xmlns="http://www.w3.org/2000/svg" viewBox="0 0 345.83 73.05"><defs><style>.cls-1{fill:#00d1ff;}</style></defs><g id="Capa_2" data-name="Capa 2"><g id="Capa_1-2" data-name="Capa 1"><path class="cls-1" d="M64.59,65.11l4.84-16a19.93,19.93,0,0,1,2.8-5.75,20.34,20.34,0,0,1,4.25-4.51,19.7,19.7,0,0,1,5.22-2.91,16.12,16.12,0,0,1,5.68-1h23.27L107.28,46H83.45l-5.76,19.1ZM76.47,25.49l3.37-11.17h37l-3.37,11.17Z"/><path class="cls-1" d="M133.24,56.07,141.1,30h11l-10.6,35.17H120q-7.56,0-9.81-3.87t-.24-10.49L116.21,30h11l-6.36,21.1c-.54,1.8-.63,3.08-.26,3.84s1.4,1.14,3.09,1.14Z"/><path class="cls-1" d="M162.12,21.2h11l-13.25,44h-11Z"/><path class="cls-1" d="M181.19,21.2h11l-13.24,44h-11Z"/><path class="cls-1" d="M219.81,17.64l-5.53,36.14a1.93,1.93,0,0,0,.05,1.08.77.77,0,0,0,.8.44,1.32,1.32,0,0,0,1-.41,3,3,0,0,0,.64-1l11.22-24a27.89,27.89,0,0,1,6.94-9.46A15,15,0,0,1,245,16.88q6,0,7.62,3.61t.88,9.37l-3.23,24a1.84,1.84,0,0,0,.11,1.07.7.7,0,0,0,.7.38,1.6,1.6,0,0,0,1.22-.44,3.54,3.54,0,0,0,.69-1.14l16.11-36.08h12.48L264,54.35a23,23,0,0,1-6.46,8.48,14.47,14.47,0,0,1-9.14,2.91c-4,0-6.77-1.07-8.32-3.22s-2.07-5.07-1.55-8.74L242,28.85a1.41,1.41,0,0,0,0-.89.65.65,0,0,0-.65-.32,1.2,1.2,0,0,0-.84.32,2.37,2.37,0,0,0-.58.89L228.16,53.91a24.27,24.27,0,0,1-6.52,8.67,14.77,14.77,0,0,1-9.59,3.16c-4,0-6.65-1.14-8-3.44a13.83,13.83,0,0,1-1.31-8.77l4.57-35.89Z"/><path class="cls-1" d="M308.52,50.86H283.74l-.07.23q-1,3.34.1,4.46c.74.74,2.29,1.11,4.64,1.11H306l-2.56,8.5H286.48A24.65,24.65,0,0,1,278.25,64a9.44,9.44,0,0,1-4.64-3.23,8.76,8.76,0,0,1-1.55-5,20.62,20.62,0,0,1,1-6.45l1.34-4.45a22,22,0,0,1,7.35-11.17q5.25-4.18,14.32-4.19h2.31a20.77,20.77,0,0,1,7.74,1.18A8,8,0,0,1,310.22,34a9.07,9.07,0,0,1,1.08,5.13,27.5,27.5,0,0,1-1.24,6.62ZM297.28,37.38h-4.51a6.44,6.44,0,0,0-4.24,1.23,8.34,8.34,0,0,0-2.33,4.1l-.23.76h14.38l.23-.76c.58-1.91.61-3.28.11-4.1S299.05,37.38,297.28,37.38Z"/><path class="cls-1" d="M315.72,38.49l2.56-8.5h5.6L326,22.84h10.1L334,30h11.84l-2.56,8.5H331.43l-4.29,14.24c-.45,1.49-.45,2.51,0,3.08s1.37.85,2.75.85h7.92l-2.56,8.5h-9.19c-4.78,0-7.88-1-9.33-3.08s-1.53-5.17-.27-9.35l4.29-14.24Z"/><path class="cls-1" d="M30.76,0a29.24,29.24,0,0,1,9.32,1.11c.91.24,2.41.27,2,1.79s-1.6.9-2.62.66a35,35,0,0,0-22.65,2C11.21,8.05,6.91,12,3.15,16.71,2.47,17.55,2,19.1.56,18s0-1.86.55-2.6Q12.12.38,30.76,0Z"/><path class="cls-1" d="M31.26,73.05c-12.44-.38-22.49-5.28-30-15.17-.53-.69-1.4-1.41-1.13-2.42a1.68,1.68,0,0,1,1.18-.92c1-.18,1.32.88,1.77,1.49A33.45,33.45,0,0,0,23.49,69.58a32.4,32.4,0,0,0,16.1-.29c.92-.27,2.09-.94,2.54.67s-1,1.37-1.73,1.62A32,32,0,0,1,31.26,73.05Z"/><path class="cls-1" d="M59.18,35.67A28.54,28.54,0,1,1,30.64,7.14,28.53,28.53,0,0,1,59.18,35.67ZM30.64,24.11A11.56,11.56,0,1,0,42.2,35.67,11.56,11.56,0,0,0,30.64,24.11Zm0,6a5.52,5.52,0,1,0,5.53,5.52A5.52,5.52,0,0,0,30.64,30.15ZM29.38,53a2.82,2.82,0,1,0,2.83,2.82A2.82,2.82,0,0,0,29.38,53Z"/></g></g></svg>